<svg width="1200" height="560" viewBox="0 0 1200 560" fill="none" xmlns="http://www.w3.org/2000/svg" role="img" aria-label="Abstract dashboard illustration">
  <defs>
    <linearGradient id="bg" x1="60" y1="0" x2="1140" y2="560" gradientUnits="userSpaceOnUse">
      <stop stop-color="#EFF1F5"/>
      <stop offset="1" stop-color="#E6E9EF"/>
    </linearGradient>
    <linearGradient id="panel" x1="140" y1="120" x2="1040" y2="460" gradientUnits="userSpaceOnUse">
      <stop stop-color="#FFFFFF"/>
      <stop offset="1" stop-color="#EFF1F5"/>
    </linearGradient>
    <linearGradient id="accent" x1="860" y1="60" x2="1120" y2="320" gradientUnits="userSpaceOnUse">
      <stop stop-color="#FE640B" stop-opacity="0.8"/>
      <stop offset="1" stop-color="#EA76CB" stop-opacity="0.25"/>
    </linearGradient>
    <filter id="soft" x="-20%" y="-20%" width="140%" height="140%" color-interpolation-filters="sRGB">
      <feGaussianBlur stdDeviation="12"/>
    </filter>
  </defs>
  <rect width="1200" height="560" rx="32" fill="url(#bg)"/>
  <g filter="url(#soft)">
    <circle cx="1040" cy="120" r="90" fill="url(#accent)"/>
    <circle cx="220" cy="420" r="70" fill="#7287FD" fill-opacity="0.25"/>
  </g>
  <rect x="140" y="90" width="920" height="380" rx="26" fill="url(#panel)" stroke="#DCE0E8"/>
  <rect x="170" y="120" width="260" height="320" rx="18" fill="#FFFFFF" stroke="#DCE0E8"/>
  <rect x="190" y="150" width="180" height="12" rx="6" fill="#BCC0CC"/>
  <rect x="190" y="176" width="130" height="10" rx="5" fill="#CCD0DA">
    <animate attributeName="opacity" dur="1.8s" repeatCount="indefinite" values="0.45;1;0.45"/>
  </rect>
  <rect x="190" y="204" width="200" height="8" rx="4" fill="#CCD0DA">
    <animate attributeName="opacity" dur="2s" repeatCount="indefinite" values="0.35;0.9;0.35"/>
  </rect>
  <rect x="190" y="224" width="150" height="8" rx="4" fill="#E6E9EF">
    <animate attributeName="opacity" dur="1.7s" repeatCount="indefinite" values="0.4;0.9;0.4"/>
  </rect>
  <rect x="190" y="244" width="170" height="8" rx="4" fill="#E6E9EF">
    <animate attributeName="opacity" dur="1.9s" repeatCount="indefinite" values="0.35;0.9;0.35"/>
  </rect>
  <rect x="190" y="274" width="200" height="8" rx="4" fill="#CCD0DA">
    <animate attributeName="opacity" dur="2.1s" repeatCount="indefinite" values="0.4;1;0.4"/>
  </rect>
  <rect x="190" y="294" width="160" height="8" rx="4" fill="#E6E9EF">
    <animate attributeName="opacity" dur="1.8s" repeatCount="indefinite" values="0.35;0.9;0.35"/>
  </rect>
  <rect x="190" y="314" width="190" height="8" rx="4" fill="#E6E9EF">
    <animate attributeName="opacity" dur="2s" repeatCount="indefinite" values="0.4;0.95;0.4"/>
  </rect>
  <rect x="190" y="344" width="150" height="10" rx="5" fill="#CCD0DA">
    <animate attributeName="opacity" dur="1.6s" repeatCount="indefinite" values="0.5;1;0.5"/>
  </rect>
  <rect x="190" y="366" width="120" height="10" rx="5" fill="#CCD0DA">
    <animate attributeName="opacity" dur="1.7s" repeatCount="indefinite" values="0.45;1;0.45"/>
  </rect>
  <rect x="460" y="120" width="570" height="150" rx="20" fill="#FFFFFF" stroke="#DCE0E8"/>
  <rect x="490" y="150" width="140" height="12" rx="6" fill="#BCC0CC"/>
  <rect x="490" y="176" width="220" height="8" rx="4" fill="#CCD0DA"/>
  <rect x="490" y="194" width="200" height="8" rx="4" fill="#E6E9EF"/>
  <rect x="490" y="212" width="240" height="8" rx="4" fill="#E6E9EF"/>
  <path d="M520 230C580 200 650 210 710 190C770 170 830 160 930 180" stroke="#7287FD" stroke-width="10" stroke-linecap="round">
    <animate attributeName="d" dur="3.6s" repeatCount="indefinite" values="M520 230C580 200 650 210 710 190C770 170 830 160 930 180;M520 234C580 210 650 200 710 200C770 180 830 170 930 188;M520 230C580 200 650 210 710 190C770 170 830 160 930 180"/>
  </path>
  <path d="M520 230C600 220 660 230 720 220C780 210 850 210 930 220" stroke="#CCD0DA" stroke-width="6" stroke-linecap="round">
    <animate attributeName="d" dur="3.6s" repeatCount="indefinite" values="M520 230C600 220 660 230 720 220C780 210 850 210 930 220;M520 226C600 216 660 236 720 226C780 214 850 214 930 226;M520 230C600 220 660 230 720 220C780 210 850 210 930 220"/>
  </path>
  <rect x="460" y="290" width="270" height="150" rx="20" fill="#FFFFFF" stroke="#DCE0E8"/>
  <rect x="490" y="320" width="140" height="12" rx="6" fill="#BCC0CC"/>
  <rect x="490" y="344" width="180" height="10" rx="5" fill="#CCD0DA"/>
  <rect x="490" y="366" width="200" height="10" rx="5" fill="#E6E9EF"/>
  <g fill="#CCD0DA">
    <rect x="490" y="392" width="30" height="28" rx="6">
      <animate attributeName="height" dur="2.4s" repeatCount="indefinite" values="24;30;24"/>
      <animate attributeName="y" dur="2.4s" repeatCount="indefinite" values="396;390;396"/>
    </rect>
    <rect x="526" y="384" width="30" height="36" rx="6">
      <animate attributeName="height" dur="2.6s" repeatCount="indefinite" values="30;38;30"/>
      <animate attributeName="y" dur="2.6s" repeatCount="indefinite" values="390;382;390"/>
    </rect>
    <rect x="562" y="398" width="30" height="22" rx="6">
      <animate attributeName="height" dur="2.2s" repeatCount="indefinite" values="18;26;18"/>
      <animate attributeName="y" dur="2.2s" repeatCount="indefinite" values="402;394;402"/>
    </rect>
    <rect x="598" y="380" width="30" height="40" rx="6">
      <animate attributeName="height" dur="2.8s" repeatCount="indefinite" values="34;42;34"/>
      <animate attributeName="y" dur="2.8s" repeatCount="indefinite" values="386;378;386"/>
    </rect>
    <rect x="634" y="394" width="30" height="26" rx="6">
      <animate attributeName="height" dur="2.3s" repeatCount="indefinite" values="20;30;20"/>
      <animate attributeName="y" dur="2.3s" repeatCount="indefinite" values="400;390;400"/>
    </rect>
  </g>
  <rect x="760" y="290" width="270" height="150" rx="20" fill="#FFFFFF" stroke="#DCE0E8"/>
  <rect x="790" y="320" width="140" height="12" rx="6" fill="#BCC0CC"/>
  <rect x="790" y="346" width="180" height="10" rx="5" fill="#CCD0DA">
    <animate attributeName="opacity" dur="1.9s" repeatCount="indefinite" values="0.45;1;0.45"/>
  </rect>
  <rect x="790" y="368" width="210" height="10" rx="5" fill="#E6E9EF">
    <animate attributeName="opacity" dur="2.1s" repeatCount="indefinite" values="0.35;0.9;0.35"/>
  </rect>
  <rect x="790" y="392" width="160" height="10" rx="5" fill="#E6E9EF">
    <animate attributeName="opacity" dur="1.8s" repeatCount="indefinite" values="0.4;0.95;0.4"/>
  </rect>
</svg>
